<svg id="visual" viewBox="0 0 900 600" width="900" height="600"
    xmlns="http://www.w3.org/2000/svg"
    xmlns:xlink="http://www.w3.org/1999/xlink" version="1.1">
    <rect x="0" y="0" width="900" height="600" fill="#000000"></rect>
    <path d="M0 307L21.5 298.5C43 290 86 273 128.8 275.8C171.7 278.7 214.3 301.3 257.2 312.8C300 324.3 343 324.7 385.8 313.7C428.7 302.7 471.3 280.3 514.2 276.8C557 273.3 600 288.7 642.8 302.5C685.7 316.3 728.3 328.7 771.2 319.8C814 311 857 281 878.5 266L900 251L900 601L878.5 601C857 601 814 601 771.2 601C728.3 601 685.7 601 642.8 601C600 601 557 601 514.2 601C471.3 601 428.7 601 385.8 601C343 601 300 601 257.2 601C214.3 601 171.7 601 128.8 601C86 601 43 601 21.5 601L0 601Z" fill="#1a1a1a" stroke-linecap="round" stroke-linejoin="miter"></path>
</svg>