<svg id="visual" viewBox="0 0 960 540" width="960" height="540" xmlns="http://www.w3.org/2000/svg" xmlns:xlink="http://www.w3.org/1999/xlink" version="1.1"><rect x="0" y="0" width="960" height="540" fill="#f2f2f2"></rect><path d="M0 351L22.8 348.2C45.7 345.3 91.3 339.7 137 335.8C182.7 332 228.3 330 274 340.8C319.7 351.7 365.3 375.3 411.2 380.2C457 385 503 371 548.8 364.8C594.7 358.7 640.3 360.3 686 356C731.7 351.7 777.3 341.3 823 345.2C868.7 349 914.3 367 937.2 376L960 385L960 541L937.2 541C914.3 541 868.7 541 823 541C777.3 541 731.7 541 686 541C640.3 541 594.7 541 548.8 541C503 541 457 541 411.2 541C365.3 541 319.7 541 274 541C228.3 541 182.7 541 137 541C91.3 541 45.7 541 22.8 541L0 541Z" fill="#3b3b3b"></path><path d="M0 390L22.8 385C45.7 380 91.3 370 137 365.3C182.7 360.7 228.3 361.3 274 371.7C319.7 382 365.3 402 411.2 408C457 414 503 406 548.8 405.8C594.7 405.7 640.3 413.3 686 417C731.7 420.7 777.3 420.3 823 411.5C868.7 402.7 914.3 385.3 937.2 376.7L960 368L960 541L937.2 541C914.3 541 868.7 541 823 541C777.3 541 731.7 541 686 541C640.3 541 594.7 541 548.8 541C503 541 457 541 411.2 541C365.3 541 319.7 541 274 541C228.3 541 182.7 541 137 541C91.3 541 45.7 541 22.8 541L0 541Z" fill="#303030"></path><path d="M0 449L22.8 447.8C45.7 446.7 91.3 444.3 137 442.2C182.7 440 228.3 438 274 437.3C319.7 436.7 365.3 437.3 411.2 431.7C457 426 503 414 548.8 407.8C594.7 401.7 640.3 401.3 686 401.7C731.7 402 777.3 403 823 411C868.7 419 914.3 434 937.2 441.5L960 449L960 541L937.2 541C914.3 541 868.7 541 823 541C777.3 541 731.7 541 686 541C640.3 541 594.7 541 548.8 541C503 541 457 541 411.2 541C365.3 541 319.7 541 274 541C228.3 541 182.7 541 137 541C91.3 541 45.7 541 22.8 541L0 541Z" fill="#262626"></path><path d="M0 451L22.8 449.3C45.7 447.7 91.3 444.3 137 448C182.7 451.7 228.3 462.3 274 463C319.7 463.7 365.3 454.3 411.2 450C457 445.7 503 446.3 548.8 452.5C594.7 458.7 640.3 470.3 686 472C731.7 473.7 777.3 465.3 823 458C868.7 450.7 914.3 444.3 937.2 441.2L960 438L960 541L937.2 541C914.3 541 868.7 541 823 541C777.3 541 731.7 541 686 541C640.3 541 594.7 541 548.8 541C503 541 457 541 411.2 541C365.3 541 319.7 541 274 541C228.3 541 182.7 541 137 541C91.3 541 45.7 541 22.8 541L0 541Z" fill="#1d1d1d"></path><path d="M0 492L22.8 489.2C45.7 486.3 91.3 480.7 137 483C182.7 485.3 228.3 495.7 274 501.5C319.7 507.3 365.3 508.7 411.2 510.2C457 511.7 503 513.3 548.8 508.5C594.7 503.7 640.3 492.3 686 487.7C731.7 483 777.3 485 823 488.8C868.7 492.7 914.3 498.3 937.2 501.2L960 504L960 541L937.2 541C914.3 541 868.7 541 823 541C777.3 541 731.7 541 686 541C640.3 541 594.7 541 548.8 541C503 541 457 541 411.2 541C365.3 541 319.7 541 274 541C228.3 541 182.7 541 137 541C91.3 541 45.7 541 22.8 541L0 541Z" fill="#131313"></path></svg>